<?xml version="1.0" encoding="utf-8"?>
<!-- Generator: Adobe Illustrator 17.0.0, SVG Export Plug-In . SVG Version: 6.00 Build 0)  -->
<!DOCTYPE svg PUBLIC "-//W3C//DTD SVG 1.1//EN" "http://www.w3.org/Graphics/SVG/1.1/DTD/svg11.dtd">
<svg version="1.1" id="Layer_1" xmlns="http://www.w3.org/2000/svg" xmlns:xlink="http://www.w3.org/1999/xlink" x="0px" y="0px"
	 width="500px" height="79.186px" viewBox="0 0 500 79.186" enable-background="new 0 0 500 79.186" xml:space="preserve">
<g>
	<path fill="#414042" d="M90.907,61.939V53.23c5.76,2.457,10.684,3.693,14.772,3.693c4.758,0,7.142-1.667,7.142-4.979
		c0-2.136-1.961-4.01-5.893-5.608l-3.927-1.612c-4.267-1.759-7.317-3.661-9.149-5.695c-1.832-2.03-2.747-4.543-2.747-7.537
		c0-4.175,1.557-7.413,4.671-9.733c3.114-2.31,7.477-3.468,13.077-3.468c3.504,0,7.689,0.523,12.534,1.566v8.346
		c-4.667-1.663-8.525-2.489-11.589-2.489c-4.818,0-7.225,1.525-7.225,4.575c0,2.003,1.782,3.707,5.333,5.098l3.385,1.318
		c5.048,1.952,8.566,3.932,10.546,5.939c1.975,2.002,2.967,4.584,2.967,7.744c0,4.143-1.681,7.505-5.053,10.087
		c-3.357,2.576-7.739,3.867-13.136,3.867C101.43,64.341,96.198,63.542,90.907,61.939z"/>
	<path fill="#414042" d="M154.38,58.609c-3.877,3.826-8.02,5.732-12.443,5.732c-3.766,0-6.834-1.176-9.191-3.528
		c-2.356-2.352-3.532-5.406-3.532-9.145c0-4.869,1.897-8.617,5.705-11.253c3.817-2.636,9.259-3.95,16.361-3.95h3.1v-4.01
		c0-4.574-2.549-6.862-7.652-6.862c-4.534,0-9.117,1.309-13.752,3.932V21.34c5.264-2.03,10.468-3.05,15.64-3.05
		c11.281,0,16.921,4.593,16.921,13.766v19.488c0,3.449,1.084,5.177,3.261,5.177c0.386,0,0.909-0.05,1.538-0.156l0.262,6.651
		c-2.453,0.753-4.63,1.125-6.513,1.125c-4.767,0-7.822-1.906-9.195-5.732H154.38z M154.38,52.229v-8.947h-2.747
		c-7.515,0-11.267,2.411-11.267,7.225c0,1.626,0.542,2.999,1.626,4.107c1.088,1.111,2.43,1.672,4.028,1.672
		C148.735,56.285,151.532,54.93,154.38,52.229z"/>
	<path fill="#414042" d="M175.14,64.341V19.296h11.625v8.3c3.013-6.205,7.588-9.306,13.747-9.306c0.73,0,1.447,0.083,2.155,0.239
		v10.592c-1.649-0.611-3.179-0.919-4.593-0.919c-4.63,0-8.405,2.389-11.308,7.184v28.955H175.14z"/>
	<path fill="#414042" d="M233.716,58.609c-3.877,3.826-8.033,5.732-12.456,5.732c-3.776,0-6.83-1.176-9.191-3.528
		c-2.352-2.352-3.532-5.406-3.532-9.145c0-4.869,1.901-8.617,5.709-11.253c3.812-2.636,9.26-3.95,16.361-3.95h3.109v-4.01
		c0-4.574-2.558-6.862-7.661-6.862c-4.538,0-9.117,1.309-13.752,3.932V21.34c5.264-2.03,10.472-3.05,15.63-3.05
		c11.285,0,16.93,4.593,16.93,13.766v19.488c0,3.449,1.089,5.177,3.261,5.177c0.386,0,0.9-0.05,1.534-0.156l0.271,6.651
		c-2.466,0.753-4.639,1.125-6.518,1.125c-4.767,0-7.826-1.906-9.191-5.732H233.716z M233.716,52.229v-8.947h-2.751
		c-7.519,0-11.272,2.411-11.272,7.225c0,1.626,0.537,2.999,1.621,4.107c1.084,1.111,2.43,1.672,4.033,1.672
		C228.062,56.285,230.85,54.93,233.716,52.229z"/>
	<path fill="#414042" d="M254.486,64.341V18.29h11.152v9.306c3.404-6.205,8.259-9.306,14.542-9.306c3.243,0,5.902,0.817,8.001,2.448
		c2.104,1.635,3.385,3.923,3.863,6.857c4.014-6.205,8.887-9.306,14.602-9.306c7.882,0,11.822,4.442,11.822,13.32v32.73h-11.156
		V35.504c0-5.218-1.695-7.822-5.108-7.822c-3.477,0-6.871,2.563-10.16,7.703V64.34h-11.166V35.505c0-5.25-1.713-7.864-5.14-7.864
		c-3.431,0-6.798,2.577-10.1,7.744V64.34L254.486,64.341L254.486,64.341z"/>
	<path fill="#414042" d="M349.417,58.609c-3.872,3.826-8.02,5.732-12.447,5.732c-3.766,0-6.834-1.176-9.186-3.528
		c-2.361-2.352-3.532-5.406-3.532-9.145c0-4.869,1.902-8.617,5.719-11.253c3.803-2.636,9.255-3.95,16.351-3.95h3.096v-4.01
		c0-4.574-2.553-6.862-7.657-6.862c-4.529,0-9.108,1.309-13.747,3.932V21.34c5.269-2.03,10.477-3.05,15.635-3.05
		c11.285,0,16.926,4.593,16.926,13.766v19.488c0,3.449,1.084,5.177,3.261,5.177c0.386,0,0.909-0.05,1.534-0.156l0.276,6.651
		c-2.466,0.753-4.634,1.125-6.522,1.125c-4.763,0-7.836-1.906-9.186-5.732H349.417z M349.417,52.229v-8.947h-2.747
		c-7.514,0-11.262,2.411-11.262,7.225c0,1.626,0.533,2.999,1.621,4.107c1.089,1.111,2.434,1.672,4.028,1.672
		C343.786,56.285,346.57,54.93,349.417,52.229z"/>
	<path fill="#414042" d="M375.033,79.186l8.538-19.259L368.464,18.29h12.489l9.498,26.185l11.644-26.112l11.86-0.073l-27.058,60.896
		H375.033z"/>
	<path fill="#414042" d="M442.685,58.609c-3.872,3.826-8.024,5.732-12.447,5.732c-3.775,0-6.834-1.176-9.196-3.528
		c-2.356-2.352-3.527-5.406-3.527-9.145c0-4.869,1.897-8.617,5.714-11.253c3.803-2.636,9.26-3.95,16.351-3.95h3.105v-4.01
		c0-4.574-2.554-6.862-7.666-6.862c-4.524,0-9.099,1.309-13.733,3.932V21.34c5.259-2.03,10.468-3.05,15.621-3.05
		c11.285,0,16.94,4.593,16.94,13.766v19.488c0,3.449,1.075,5.177,3.256,5.177c0.39,0,0.9-0.05,1.534-0.156l0.271,6.651
		c-2.457,0.753-4.63,1.125-6.513,1.125c-4.768,0-7.832-1.906-9.2-5.732H442.685z M442.685,52.229v-8.947h-2.751
		c-7.505,0-11.276,2.411-11.276,7.225c0,1.626,0.56,2.999,1.635,4.107c1.094,1.111,2.43,1.672,4.033,1.672
		C437.045,56.285,439.828,54.93,442.685,52.229z"/>
	<path fill="#414042" d="M480.983,13.495c3.091-4.708,6.316-7.064,9.664-7.064c2.563,0,4.717,1.061,6.467,3.188
		c1.736,2.113,2.618,4.731,2.618,7.831c0,3.638-0.951,6.669-2.866,9.09c-1.911,2.426-4.295,3.642-7.137,3.642
		c-3.05,0-6.545-2.177-10.482-6.527c-2.696,4.35-5.792,6.527-9.283,6.527c-2.71,0-4.942-1.042-6.683-3.118
		c-1.764-2.081-2.646-4.731-2.646-7.956c0-3.495,0.983-6.481,2.926-8.975c1.961-2.485,4.313-3.725,7.046-3.725
		C474.222,6.408,477.689,8.769,480.983,13.495z M476.137,19.696c-2.83-3.849-5.144-5.773-6.968-5.773
		c-0.992,0-1.81,0.538-2.462,1.631c-0.643,1.084-0.955,2.471-0.955,4.143c0,3.743,1.41,5.618,4.23,5.618
		c1.024,0,1.925-0.367,2.733-1.098C473.514,23.485,474.653,21.979,476.137,19.696z M484.097,17.716
		c2.756,3.569,5.057,5.351,6.889,5.351c2.577,0,3.881-1.989,3.881-5.966c0-1.548-0.418-2.853-1.226-3.904
		c-0.809-1.052-1.81-1.575-2.995-1.575c-1.144,0-2.127,0.395-2.972,1.189C486.825,13.605,485.631,15.241,484.097,17.716z"/>
	<path fill="#414042" d="M40.934,56.588c-0.537,0.087-0.997,0.133-1.341,0.133c-2.172,0-3.261-1.727-3.261-5.177V32.056
		c0-9.172-5.64-13.766-16.925-13.766c-5.158,0-10.367,1.02-15.631,3.05v8.185c4.63-2.623,9.214-3.932,13.752-3.932
		c5.103,0,7.652,2.287,7.652,6.862v4.01h-3.105c-7.096,0-12.544,1.314-16.356,3.95C1.906,43.052,0,46.8,0,51.669
		c0,3.739,1.185,6.793,3.537,9.145c2.361,2.352,5.42,3.528,9.195,3.528c4.419,0,8.576-1.906,12.447-5.732h0.505
		c1.36,3.826,4.432,5.732,9.191,5.732c1.764,0,3.789-0.335,6.058-0.997L40.934,56.588L40.934,56.588z M25.179,52.229
		c-2.852,2.701-5.645,4.056-8.355,4.056c-1.603,0-2.949-0.56-4.033-1.672c-1.088-1.107-1.635-2.481-1.635-4.107
		c0-4.813,3.762-7.225,11.272-7.225h2.751V52.229z"/>
	<rect x="45.927" fill="#414042" width="11.625" height="64.359"/>
	<polygon fill="#414042" points="85.166,18.309 71.974,18.309 55.568,41.33 71.974,64.359 85.166,64.359 67.464,41.33 	"/>
</g>
</svg>
