<?xml version="1.0" encoding="UTF-8" standalone="no"?>
<svg width="836px" height="193px" viewBox="0 0 836 193" version="1.1" xmlns="http://www.w3.org/2000/svg" xmlns:xlink="http://www.w3.org/1999/xlink">
    <!-- Generator: Sketch 3.8.3 (29802) - http://www.bohemiancoding.com/sketch -->
    <title>1 Openedoo</title>
    <desc>Created with Sketch.</desc>
    <defs></defs>
    <g id="Page-1" stroke="none" stroke-width="1" fill="none" fill-rule="evenodd">
        <g id="3-Openedoo-Landscape-Alt-Color" transform="translate(-91.000000, -160.000000)">
            <g id="1-Openedoo" transform="translate(91.000000, 160.000000)">
                <g id="Logotype" transform="translate(228.000000, 63.000000)">
                    <path d="M0.338633823,66.5172713 C0.338633823,55.9972769 3.29457289,47.3816025 9.19302715,40.6648876 C15.0914814,33.9495128 23.2397785,30.587135 33.6499999,30.587135 C44.0978081,30.587135 52.2716106,33.9361116 58.1700648,40.6327246 C64.0698615,47.3239771 67.0258006,55.9517126 67.0258006,66.5172713 L67.0258006,67.8842005 C67.0258006,78.4872828 64.0698615,87.1284196 58.1700648,93.7995702 C52.2716106,100.472061 44.1367374,103.807636 33.7788692,103.807636 C23.2907892,103.807636 15.0914814,100.472061 9.19302715,93.7995702 C3.29457289,87.1284196 0.338633823,78.4872828 0.338633823,67.8842005 L0.338633823,66.5172713 Z M19.4099446,67.8842005 C19.4099446,74.3181487 20.541578,79.4816568 22.8035023,83.3693643 C25.0654266,87.2637724 28.7274619,89.2069561 33.7788692,89.2069561 C38.7000647,89.2069561 42.2990078,87.2503711 44.5864375,83.3372012 C46.8738672,79.4240313 48.017582,74.2725844 48.017582,67.8842005 L48.017582,66.5172713 C48.017582,60.2561995 46.8617857,55.1503168 44.5609321,51.1915826 C42.247997,47.2408892 38.6101247,45.2588419 33.6499999,45.2588419 C28.6885327,45.2588419 25.0654266,47.2408892 22.8035023,51.1915826 C20.541578,55.1503168 19.4099446,60.2561995 19.4099446,66.5172713 L19.4099446,67.8842005 Z M73.8746657,43.366583 L73.8746657,31.8964388 L101.569479,31.8964388 L102.482303,40.1073949 C104.577771,37.0666475 107.08401,34.7187455 110.00102,33.0703897 C112.91803,31.4153333 116.310245,30.587135 120.179008,30.587135 C128.93138,30.587135 135.729235,34.0004377 140.561832,40.8257028 C145.393088,47.650968 147.809387,56.6257963 147.809387,67.7555484 L147.809387,69.1224776 C147.809387,79.5526835 145.393088,87.9432166 140.561832,94.2940769 C135.729235,100.638237 128.982391,103.807636 120.319959,103.807636 C116.618994,103.807636 113.328801,103.126852 110.45072,101.754562 C107.584721,100.388973 105.117411,98.3734225 103.074296,95.7253322 L103.074296,116.130101 L112.28845,118.086686 L112.28845,129.563531 L74.8640059,129.563531 L74.8640059,118.086686 L84.0660778,116.130101 L84.0660778,45.3231679 L73.8746657,43.366583 Z M128.738076,67.7555484 C128.738076,61.1031595 127.633291,55.7145102 125.410296,51.5828996 C123.185958,47.4526292 119.793743,45.3928545 115.218883,45.3928545 C112.352884,45.3928545 109.897656,45.9771498 107.880047,47.1511007 C105.849013,48.3250517 104.243517,49.9988699 103.074296,52.1738955 L103.074296,83.0745364 C104.243517,85.0753455 105.849013,86.5963893 107.880047,87.6416881 C109.897656,88.6816264 112.390471,89.2069561 115.34641,89.2069561 C119.960199,89.2069561 123.353757,87.4044857 125.512317,83.7928443 C127.658796,80.1879035 128.738076,75.2937609 128.738076,69.1224776 L128.738076,67.7555484 Z M190.142945,103.807636 C179.951533,103.807636 171.803236,100.548448 165.711478,94.0314121 C159.619719,87.5076754 156.561759,79.2323932 156.561759,69.1854635 L156.561759,66.5815974 C156.561759,56.1058272 159.453263,47.4780916 165.224191,40.6970507 C170.993776,33.9173498 178.729959,30.5496115 188.434085,30.587135 C197.969069,30.587135 205.37234,33.4617067 210.641214,39.1961088 C215.910089,44.9318509 218.545197,52.6938647 218.545197,62.4700888 L218.545197,72.8426692 L176.35259,72.8426692 L176.225063,73.2339862 C176.571399,77.8842258 178.127227,81.7076072 180.901944,84.7041304 C183.665921,87.7060142 187.417897,89.2069561 192.160555,89.2069561 C196.389078,89.2069561 199.896738,88.783476 202.672797,87.936516 C205.46228,87.0841954 208.508159,85.7494292 211.823859,83.9214965 L216.977287,95.6610061 C214.058935,97.9633438 210.281454,99.9011669 205.654242,101.466435 C201.014948,103.025002 195.836014,103.807636 190.142945,103.807636 Z M188.434085,45.2588419 C184.911658,45.2588419 182.123517,46.6056692 180.080402,49.2993238 C178.037287,52.0010192 176.764703,55.5416338 176.288155,59.9292086 L176.481459,60.2561995 L199.871233,60.2561995 L199.871233,58.5636195 C199.871233,54.5150968 198.920822,51.2880718 197.030739,48.8758438 C195.128575,46.4649559 192.276,45.2588419 188.434085,45.2588419 Z M226.512272,91.0295283 L235.649909,89.0729434 L235.649909,45.3231679 L225.536355,43.366583 L225.536355,31.8964388 L253.42313,31.8964388 L254.27152,41.9996538 C256.623384,38.394713 259.514888,35.591168 262.959457,33.5890188 C266.390601,31.5882096 270.24594,30.587135 274.513393,30.587135 C281.658926,30.587135 287.223126,32.8264867 291.232839,37.3038499 C295.242553,41.7812131 297.246739,48.8061572 297.246739,58.3639406 L297.246739,89.0729434 L306.384376,91.0295283 L306.384376,102.440707 L269.937191,102.440707 L269.937191,91.0295283 L278.110994,89.0729434 L278.110994,58.4282667 C278.110994,53.6935992 277.147159,50.3325614 275.232913,48.3572147 C273.317325,46.3805279 270.425821,45.3928545 266.544976,45.3928545 C264.026655,45.3928545 261.751307,45.8994224 259.759203,46.9192588 C257.755017,47.9457958 256.071662,49.3891123 254.72122,51.2559087 L254.72122,89.0729434 L262.431898,91.0295283 L262.431898,102.440707 L226.512272,102.440707 L226.512272,91.0295283 Z" id="Open" fill="#344046"></path>
                    <path d="M347.18943,30.587135 C337.486647,30.5496115 329.750463,33.9173498 323.979536,40.6970507 C318.209951,47.4780916 315.318446,56.1058272 315.318446,66.5815974 L315.318446,69.1854635 C315.318446,79.2323932 318.376407,87.5076754 324.468165,94.0314121 C330.559923,100.548448 338.70822,103.807636 348.899632,103.807636 C354.592701,103.807636 359.771635,103.025002 364.410929,101.466435 C369.0368,99.9011669 372.815623,97.9633438 375.732632,95.6610061 L370.579204,83.9214965 C367.263505,85.7494292 364.217625,87.0841954 361.429485,87.936516 C358.653426,88.783476 355.144423,89.2069561 350.917242,89.2069561 C346.174584,89.2069561 342.421266,87.7060142 339.658631,84.7041304 C336.882572,81.7076072 335.328087,77.8842258 334.980408,73.2339862 L335.109277,72.8426692 L377.300542,72.8426692 L377.300542,62.4700888 C377.300542,52.6938647 374.666776,44.9318509 369.39656,39.1961088 C364.127685,33.4617067 356.725756,30.587135 347.18943,30.587135 Z M358.627921,60.2561995 L335.238147,60.2561995 L335.044843,59.9292086 C335.520048,55.5416338 336.792632,52.0010192 338.835747,49.2993238 C340.880205,46.6056692 343.668345,45.2588419 347.18943,45.2588419 C351.032687,45.2588419 353.885263,46.4649559 355.787427,48.8758438 C357.676167,51.2880718 358.627921,54.5150968 358.627921,58.5636195 L358.627921,60.2561995 Z M450.245923,0.726432416 L420.996624,0.726432416 L420.996624,12.2019371 L431.174612,14.1585221 L431.174612,39.4587736 C429.041557,36.6297662 426.560824,34.4493801 423.733754,32.9028739 C420.906684,31.3630684 417.731936,30.587135 414.197427,30.587135 C405.445055,30.587135 398.660625,34.0004377 393.828027,40.8257028 C388.995429,47.650968 386.567049,56.6257963 386.567049,67.7555484 L386.567049,69.1224776 C386.567049,79.5526835 388.983348,87.9432166 393.789098,94.2940769 C398.59619,100.638237 405.355115,103.807636 414.068558,103.807636 C417.950745,103.807636 421.393971,102.960676 424.414345,101.266756 C427.4468,99.574176 430.069827,97.0976219 432.292822,93.8317332 L433.731862,102.440707 L459.396984,102.440707 L459.396984,91.0295283 L450.245923,89.0729434 L450.245923,0.726432416 Z M431.174612,82.4259151 C429.876523,84.5567165 428.193168,86.1863105 426.150053,87.3146972 C424.105595,88.444424 421.690639,89.0086173 418.901156,89.0086173 C414.197427,89.0086173 410.817293,87.23831 408.748673,83.6963552 C406.680053,80.1557405 405.638359,75.2937609 405.638359,69.1224776 L405.638359,67.7555484 C405.638359,61.1031595 406.705558,55.7145102 408.838613,51.5828996 C410.971668,47.4526292 414.377307,45.3928545 419.030025,45.3928545 C421.780579,45.3928545 424.157949,46.0093128 426.18764,47.2475898 C428.205249,48.4845268 429.876523,50.2360723 431.174612,52.4941858 L431.174612,82.4259151 Z M598.283164,40.6327246 C592.383367,33.9361116 584.210907,30.587135 573.761757,30.587135 C563.352878,30.587135 555.204581,33.9495128 549.306126,40.6648876 C545.026592,45.5375882 542.344501,51.4421863 541.168568,58.3156961 C539.418094,57.9726236 537.564256,57.7381015 535.684912,57.7381015 C534.224394,57.7381015 532.816228,57.965923 531.420145,58.1870439 C530.234816,51.3389966 527.564805,45.4625411 523.30675,40.6327246 C517.408295,33.9361116 509.234493,30.587135 498.786685,30.587135 C488.376463,30.587135 480.228166,33.9495128 474.329712,40.6648876 C468.431258,47.3816025 465.475319,55.9972769 465.475319,66.5172713 L465.475319,67.8842005 C465.475319,78.4872828 468.431258,87.1284196 474.329712,93.7995702 C480.228166,100.472061 488.427474,103.807636 498.914211,103.807636 C509.273422,103.807636 517.408295,100.472061 523.30675,93.7995702 C527.799723,88.71915 530.559674,82.4808603 531.633584,75.1182043 C532.965233,74.7242071 534.397562,74.3918557 535.684912,74.3918557 C537.405854,74.3918557 539.380507,74.9359471 541.015536,75.5122016 C542.128376,82.7086818 544.891011,88.8075983 549.306126,93.7995702 C555.204581,100.472061 563.403889,103.807636 573.890626,103.807636 C584.248494,103.807636 592.383367,100.472061 598.283164,93.7995702 C604.181618,87.1284196 607.137557,78.4872828 607.137557,67.8842005 L607.137557,66.5172713 C607.137557,55.9517126 604.181618,47.3239771 598.283164,40.6327246 Z M513.154267,67.8842005 C513.154267,74.2725844 512.010552,79.4240313 509.723122,83.3372012 C507.435692,87.2503711 503.836749,89.2069561 498.914211,89.2069561 C493.864147,89.2069561 490.202111,87.2637724 487.940187,83.3693643 C485.678263,79.4816568 484.546629,74.3181487 484.546629,67.8842005 L484.546629,66.5172713 C484.546629,60.2561995 485.678263,55.1503168 487.940187,51.1915826 C490.202111,47.2408892 493.825217,45.2588419 498.786685,45.2588419 C503.746809,45.2588419 507.383339,47.2408892 509.697617,51.1915826 C511.997128,55.1503168 513.154267,60.2561995 513.154267,66.5172713 L513.154267,67.8842005 Z M588.130681,67.8842005 C588.130681,74.2725844 586.985624,79.4240313 584.698194,83.3372012 C582.410765,87.2503711 578.813164,89.2069561 573.890626,89.2069561 C568.840561,89.2069561 565.177183,87.2637724 562.915259,83.3693643 C560.653335,79.4816568 559.523044,74.3181487 559.523044,67.8842005 L559.523044,66.5172713 C559.523044,60.2561995 560.653335,55.1503168 562.915259,51.1915826 C565.177183,47.2408892 568.801632,45.2588419 573.761757,45.2588419 C578.723224,45.2588419 582.359754,47.2408892 584.672689,51.1915826 C586.973543,55.1503168 588.130681,60.2561995 588.130681,66.5172713 L588.130681,67.8842005 Z" id="Edoo" fill="#D98735"></path>
                </g>
                <g id="Icon">
                    <path d="M87.2339756,156.147229 C88.3687262,153.052822 89.6936078,149.574253 91.3051951,145.848796 C92.9187944,142.12535 94.7144768,138.103223 96.8919304,133.984554 C98.9843783,129.821636 101.489783,125.576756 104.305031,121.320312 C105.008214,120.255823 105.801433,119.235584 106.556424,118.178638 C107.315943,117.126218 108.072946,116.062735 108.974308,115.04853 C109.843982,114.022759 110.718685,112.991458 111.598419,111.95362 C112.526943,111.047522 113.459993,110.136397 114.397068,109.221752 L115.864799,107.812826 L117.25507,106.504466 C118.219306,105.659211 119.034154,104.693277 119.888738,103.75701 C121.583822,101.875928 123.010811,99.7972343 124.067598,97.6114381 C125.193294,95.4392184 125.650514,93.0804492 125.607257,90.7191659 C125.550922,88.3458147 124.892505,85.9528531 123.998185,83.5699482 C123.10487,81.19358 122.001305,78.7774884 121.08435,76.2135651 C120.664855,75.0485111 120.194557,73.5777373 119.949097,72.2628404 C119.665409,70.917271 119.48735,69.5852779 119.372165,68.2698781 C118.885268,63.0052622 119.308788,57.9905521 119.969216,53.3021778 C120.668376,48.6163177 121.742264,44.2572961 123.162211,40.3709335 C124.571596,36.4986501 126.322009,33.0241042 128.722791,30.5516957 C129.915386,29.3308278 131.302136,28.3799788 132.782442,28.0088912 C134.286389,27.6508772 135.675151,28.0189478 136.780225,28.479036 C137.80985,28.9858873 138.570374,29.6104005 139.208168,30.2213373 L139.114109,30.107698 L142.155703,32.3578562 C142.189404,32.1542106 142.143128,31.9435254 142.220086,31.7474222 L146.35418,18.2037326 C146.411521,18.0166804 146.348647,17.8130348 146.19624,17.6898418 C146.045342,17.5676544 145.830062,17.5480441 145.661559,17.6435815 L138.111142,21.8276187 L141.66428,13.8985138 C141.750291,13.7059304 141.700998,13.4796575 141.542053,13.3408768 C141.384113,13.2005876 141.15324,13.1824858 140.972665,13.2926052 L134.565047,17.2498667 L137.811862,10.4511206 C137.905921,10.2540117 137.856125,10.0181851 137.690138,9.87739308 C137.522641,9.73660106 137.282714,9.72553883 137.103649,9.84923468 L130.361037,14.534592 L132.314156,6.75533002 C132.365461,6.54766179 132.27442,6.33144547 132.091834,6.22384014 C131.906732,6.11271501 131.672338,6.14087341 131.518422,6.28669372 L124.72702,12.6520016 L125.35224,4.51070294 C125.370348,4.29046399 125.233534,4.08581273 125.023283,4.01692521 C124.807499,3.94854051 124.582159,4.0325129 124.463956,4.22157647 L119.45717,12.3291856 L118.539712,1.31422123 C118.521102,1.08442854 118.340527,0.900393258 118.111666,0.875754655 C117.880792,0.852624537 117.667021,0.993416558 117.600123,1.2136555 L114.108853,12.6841826 L111.310707,0.402592898 C111.260911,0.185873752 111.069271,0.0304997001 110.845439,0.0289912141 L110.841918,0.0289912141 C110.620099,0.0289912141 110.427453,0.179839808 110.375142,0.395050469 L107.474385,12.2296255 L102.718593,1.32176366 C102.62906,1.1171124 102.404726,0.995930701 102.190451,1.04219094 C101.969638,1.08241723 101.807674,1.26946948 101.797614,1.4927254 L101.260418,13.6224608 L96.3743514,3.07462433 C96.2767709,2.86444195 96.0438854,2.75080268 95.8190479,2.81114211 C95.5957193,2.86745892 95.4438156,3.07613281 95.4573964,3.30693116 L96.1666155,14.6597963 L90.0019421,4.61981676 C89.8832359,4.42622773 89.6468295,4.34376383 89.4340638,4.41717681 C89.2212981,4.49109262 89.0875021,4.70429197 89.1146637,4.92855354 L90.5502037,16.9677798 L81.5461388,6.96249542 C81.3947381,6.79555631 81.1477689,6.7533187 80.9521049,6.86494666 C80.7559379,6.97456331 80.6628843,7.20687014 80.7277704,7.42258363 L84.3427759,19.4150468 L71.039133,10.3269219 C70.8706305,10.212277 70.647805,10.2162996 70.4833265,10.3364756 C70.319351,10.4581602 70.2484291,10.6688454 70.3077822,10.8644457 L73.3257359,20.7787181 L63.5480689,15.2983887 C63.3820814,15.2053654 63.1773635,15.218439 63.0259629,15.3330839 C62.8735562,15.4467232 62.8021313,15.6388037 62.8448856,15.8238447 L65.0796804,25.7064389 L50.4380779,22.2761418 C50.2489528,22.2263618 50.0542948,22.3048031 49.9401156,22.4596743 C49.8264393,22.6140427 49.8158765,22.8227166 49.91396,22.9891529 L58.7852349,37.9704296 L43.069744,30.9584841 C42.8831338,30.8750145 42.6593023,30.9207719 42.5189674,31.0736318 C42.3786326,31.2269946 42.351974,31.4522618 42.4545844,31.633783 L49.8857924,44.8446 L36.7099095,42.3887849 C36.5072036,42.3500671 36.3070127,42.4456045 36.2044023,42.6210917 C36.1027978,42.7985902 36.1234205,43.0203376 36.2567135,43.1752089 L44.954959,53.298658 L30.1242315,53.4384444 C29.9446633,53.4409585 29.7801848,53.5420271 29.699706,53.7024294 C29.6192273,53.8633346 29.633814,54.0549123 29.7389394,54.2007326 L38.1479645,65.8593176 L24.550071,67.2189663 C24.3689938,67.2365653 24.2125632,67.3562385 24.1481802,67.5272002 C24.0832942,67.6971563 24.1210186,67.8897397 24.2447547,68.0239949 L32.7805338,77.2297818 L21.1498432,79.2426048 C20.9737959,79.2737802 20.8289341,79.3979789 20.7736049,79.5674322 C20.7182758,79.7363826 20.7615331,79.9224292 20.8857722,80.0511533 L26.831644,86.2072844 L17.1435096,86.2072844 C16.9332589,86.2072844 16.7471517,86.3445566 16.6842777,86.5441796 C16.6224096,86.7453111 16.6963495,86.9630359 16.8703848,87.0832119 L25.401134,92.9879287 L14.1300828,96.0798221 C13.9530296,96.1290993 13.8187306,96.2739139 13.7855331,96.4559379 C13.7513297,96.6359506 13.8227546,96.8199858 13.9711373,96.9301053 L21.6654103,102.643747 L9.04684281,107.149092 C8.86928654,107.211945 8.74504744,107.373856 8.72895169,107.561411 C8.71285594,107.748966 8.80842447,107.929482 8.97340594,108.0215 L20.2857024,114.354124 L7.03084974,122.578389 C6.89152087,122.664373 6.80651518,122.815221 6.80349722,122.977635 C6.80047927,123.140551 6.87995205,123.293914 7.01575997,123.384926 L16.7808522,129.969467 L5.56160927,137.98003 C5.43234026,138.073556 5.3573944,138.223399 5.36041236,138.382293 C5.3639333,138.540684 5.44592105,138.687007 5.57820802,138.775002 L15.9780765,145.554641 L5.60486661,151.415109 C5.43988514,151.507629 5.34532259,151.688145 5.36242433,151.875197 C5.37852008,152.062752 5.50326217,152.22416 5.68081844,152.287517 L16.2899317,156.043647 L0.774631697,165.850314 C0.594057466,165.964959 0.510560747,166.1857 0.569913837,166.390352 C0.629769919,166.596009 0.817889033,166.737806 1.03216375,166.737806 L83.6416047,166.737806 C83.877508,165.973507 84.138058,165.142834 84.4413624,164.211092 C85.180761,161.963951 86.1163267,159.248676 87.2339756,156.147229" id="Fill-11" fill="#D98735"></path>
                    <path d="M139.536119,50.8755268 C139.157869,50.8755268 138.79823,50.9444143 138.466255,51.0826922 C137.507048,51.4834466 136.971865,52.3779788 136.695219,53.0648427 C135.864779,55.0756544 136.040323,57.9845182 137.15596,60.6585609 C139.111594,65.3338617 142.764324,67.3854025 144.876388,66.4727685 C145.836098,66.0715113 146.370778,65.1769791 146.647927,64.4901152 C147.477865,62.4798063 147.302823,59.5709425 146.18618,56.896397 C144.53536,52.9451695 141.592855,50.8755268 139.536119,50.8755268 Z M194.224459,151.356278 C190.773428,151.356278 162.736638,146.324472 154.936234,136.026038 C154.884426,135.965699 152.829199,133.313278 150.637662,129.528989 C150.221184,128.825029 149.807725,128.052182 149.39175,127.28034 C145.257154,119.57801 142.374002,112.391583 136.746021,109.405284 C142.062147,110.175115 145.71538,117.261479 145.71538,117.261479 C145.71538,117.261479 150.890164,127.105858 156.214338,130.569845 C159.979235,118.619116 174.976453,103.097299 187.06386,90.6040181 C196.767587,80.5735923 204.431681,72.6520298 203.984018,69.0789294 C203.236571,63.1002968 201.243213,61.0824455 196.082512,61.0824455 C194.803403,61.0824455 193.267264,61.1925649 190.949476,61.4495104 C189.84239,61.5727034 188.617604,61.6345513 187.307309,61.635557 C182.311086,61.635557 167.864645,60.4287682 154.484044,49.1789829 C153.449389,49.3494418 150.712608,50.1258093 149.724731,53.4721339 C150.010431,53.9960813 150.305184,54.5129892 150.540082,55.0801799 C152.14513,58.9207851 152.329728,63.111359 151.019936,66.2882304 C150.125113,68.4503936 148.630723,70.0227388 146.6937,70.8292759 C145.789822,71.2074031 144.812005,71.4009921 143.806524,71.4009921 C139.444072,71.4009921 135.016231,67.8143154 132.802562,62.4752808 C131.197513,58.6346756 131.013418,54.4435988 132.32321,51.2672303 C133.21753,49.1045643 134.71192,47.5327219 136.648944,46.7256819 C139.72625,45.445983 143.40413,46.5356127 146.379832,49.1794857 C147.508044,47.4407043 149.024063,46.2671022 150.541591,45.5133621 C148.032162,42.9454162 145.579572,40.099406 143.302023,36.6500015 C143.288442,36.630894 142.344828,35.2335332 142.088805,33.6667192 C142.039512,33.6400693 141.590843,33.1467943 140.748331,32.2210868 C140.328835,31.7559703 139.726753,31.2858255 139.073869,30.6909792 C138.7092,30.4440904 138.317872,30.1796025 137.899885,29.8975156 C137.483408,29.6194514 136.985445,29.4434614 136.498046,29.1915442 C135.4649,28.8672197 134.267778,28.664077 133.058082,29.0623173 C131.860457,29.4766481 130.73979,30.377717 129.763482,31.5558445 C128.769066,32.7254239 127.942147,34.2047458 127.208281,35.8223456 C126.458823,37.4339114 125.80946,39.2144276 125.242085,41.1085831 C124.105825,44.8994083 123.318139,49.1608811 122.806093,53.6873446 C122.350885,58.2143109 122.190933,63.0595677 122.732153,67.8962764 C122.867458,69.1015567 123.06111,70.3053285 123.338259,71.4683711 C123.604845,72.6761656 123.949394,73.6682465 124.436291,74.9378888 C125.335641,77.246878 126.471398,79.5910651 127.455251,82.1751015 C128.437595,84.7360078 129.282119,87.5689444 129.38322,90.59547 C129.483316,93.5983627 128.853569,96.7229399 127.526676,99.3451913 C125.001151,104.678192 120.671394,108.568074 116.930137,112.027535 C115.985518,112.934135 115.044419,113.836713 114.10835,114.734765 C113.283946,115.664495 112.464572,116.5897 111.649221,117.509373 C110.812745,118.39586 110.055742,119.404032 109.299241,120.397118 C108.549783,121.394227 107.763606,122.348596 107.057907,123.36079 C104.259761,127.42616 101.620058,131.440241 99.394317,135.43974 C97.112744,139.400521 95.1138527,143.256211 93.2980505,146.833334 C91.5214818,150.431576 89.9330322,153.757788 88.5523183,156.724477 C87.1992691,159.703234 86.0534527,162.319954 85.1400187,164.489157 C84.794463,165.315304 84.4876377,166.050942 84.1999261,166.737806 L214.452796,166.737806 C214.452796,166.737806 222.307021,164.823538 213.864798,156.696821 C205.8637,148.994492 198.74485,151.356278 194.224459,151.356278 Z" id="Combined-Shape" fill="#344046"></path>
                </g>
            </g>
        </g>
    </g>
</svg>